<?xml version="1.0" encoding="UTF-8"?>
<svg width="120px" height="120px" viewBox="0 0 120 120" version="1.1" xmlns="http://www.w3.org/2000/svg" xmlns:xlink="http://www.w3.org/1999/xlink">
    <!-- Generator: Sketch 54.1 (76490) - https://sketchapp.com -->
    <title>donuuuts-logo-white</title>
    <desc>Created with Sketch.</desc>
    <g id="donuuuts-logo-white" stroke="none" stroke-width="1" fill="none" fill-rule="evenodd">
        <path d="M51.1950499,10.2027209 C52.4316447,10.4831133 53.4274556,11.0191807 54.2588051,11.5615781 C55.9216248,12.6463006 57.0365616,13.6150561 60.0001209,13.6150561 C62.9636801,13.6150561 64.0786169,12.6462765 65.7414366,11.5615781 C66.9885212,10.748 68.6123959,9.94879427 70.8492628,10.0025698 C71.594873,10.020798 72.4085104,10.1339582 73.2983378,10.3722947 C76.8578885,11.3260991 78.3539559,13.4055485 79.2516206,15.1764035 C80.1492972,16.9472585 80.6272358,18.3456636 83.1937488,19.8273847 C85.7602617,21.3091057 87.2117172,21.0304375 89.1941755,20.9224282 C91.1765131,20.814425 93.7262665,21.064849 96.3319656,23.6706476 C98.9377852,26.2763497 99.188215,28.826106 99.0801817,30.8084459 C98.9721979,32.7909065 98.6934444,34.2423637 100.175224,36.8088796 C101.657064,39.3753955 103.050765,39.8533467 104.821497,40.7510123 C106.59223,41.6486659 108.674161,43.1447472 109.627892,46.704302 C110.581671,50.2638567 109.525712,52.59622 108.440997,54.258921 C107.356288,55.9217426 106.387521,57.0389716 106.387521,60.0026549 C106.387521,62.9662175 107.356324,64.0788647 108.440997,65.7416863 C109.52573,67.404508 110.581647,69.7367506 109.627892,73.2963054 C108.674112,76.8558602 106.59223,78.3519294 104.821497,79.249595 C103.050765,80.1472968 101.656943,80.6252119 100.175224,83.1917278 C98.6933842,85.7582437 98.9721726,87.2097009 99.0801817,89.1921614 C99.1881668,91.1745014 98.9377491,93.7242576 96.3319656,96.3299598 C93.7261459,98.9356619 91.1765131,99.1909148 89.1941755,99.0828815 C87.2118378,98.9749241 85.7602617,98.6914414 83.1937488,100.173223 C80.6272358,101.655064 80.1492852,103.051058 79.2516206,104.821913 C78.3539439,106.592647 76.8578885,108.674581 73.2983378,109.628313 C69.7387872,110.582117 67.4041357,109.523792 65.741316,108.439065 C64.0784963,107.354343 62.9635595,106.385587 60.0000003,106.385587 C57.0364411,106.385587 55.9215042,107.354367 54.2586846,108.439065 C52.5958649,109.523691 50.2612134,110.582129 46.7016628,109.628313 C43.1421121,108.674508 41.650747,106.592647 40.7530824,104.821913 C39.8554057,103.051058 39.3727648,101.655064 36.8062518,100.173223 C34.2397389,98.6916222 32.7929857,98.9748843 30.8105275,99.0828815 C28.8281898,99.1908847 26.2784365,98.9357463 23.6727374,96.3299598 C21.0669177,93.7242576 20.8117856,91.1745014 20.9198189,89.1921614 C21.0278075,87.2098215 21.3112706,85.7582437 19.8294789,83.1917278 C18.347639,80.6252119 16.9492355,80.1472607 15.1785031,79.249595 C13.4077707,78.3519414 11.3258399,76.8558602 10.372109,73.2963054 C9.41832978,69.7367506 10.4742848,67.4043874 11.5590037,65.7416863 C12.6437129,64.0788647 13.6124793,62.9662175 13.6124793,60.0026549 C13.6124841,57.0390922 12.6436767,55.9217426 11.5590037,54.258921 C10.4743185,52.5960994 9.41835389,50.2638567 10.372109,46.704302 C11.3259002,43.1447472 13.4077707,41.648678 15.1785031,40.7510123 C16.9492355,39.8533105 18.3477596,39.3753955 19.8294789,36.8088796 C21.3111982,34.2423637 21.0278159,32.7909065 20.9198189,30.8084459 C20.8118387,28.826106 21.0669659,26.2763497 23.6727374,23.6706476 C26.2785571,21.0649455 28.8281898,20.8143949 30.8105275,20.9224282 C32.7928651,21.0303856 34.2396183,21.3092142 36.8062518,19.8273847 C39.3727648,18.3455431 39.8554178,16.9472585 40.7530824,15.1764035 C41.650759,13.4056691 43.1421121,11.3261474 46.7016628,10.3722947 C47.5915504,10.1339582 48.4043921,10.0205111 49.1507378,10.0025698 C49.8974332,9.98460203 50.5767525,10.062585 51.1950499,10.2027209 Z M47.9958516,15.2018988 C46.4693828,15.6109465 45.8463684,16.1873766 45.2128231,17.437092 C45.1291046,17.6022466 44.825508,18.2166826 44.8020485,18.2636639 C43.7903123,20.2898272 42.8396108,21.6070982 41.0906221,22.9664505 C40.550251,23.3864387 39.9583279,23.781019 39.3062303,24.1575241 C36.9681117,25.507422 34.9029415,26.0362707 32.5772324,26.0152522 C32.0988074,26.0109284 31.819133,25.9962125 31.0020872,25.9433029 C30.7949033,25.9298862 30.6679976,25.9220753 30.5384414,25.9150197 C29.136586,25.8386214 28.3244973,26.0900058 27.2082242,27.2062285 C26.0896078,28.3248152 25.8363698,29.1403803 25.9124162,30.5364678 C25.9195855,30.6680735 25.9275555,30.7969 25.9413779,31.0089437 C25.9939254,31.8150574 26.0086586,32.091554 26.0136654,32.5634479 C26.038421,34.8966573 25.5120992,36.9661987 24.1596492,39.3088045 C23.7839823,39.9595048 23.390174,40.5503267 22.9709863,41.0897375 C21.6120954,42.8383586 20.2956321,43.7878135 18.2701203,44.7981224 C18.2336945,44.8162913 17.6067538,45.1258047 17.4393182,45.2106889 C16.1912648,45.8433846 15.6110429,46.4708694 15.2017465,47.9983659 C14.7928511,49.524424 14.980793,50.3529003 15.7467983,51.527186 C15.8115263,51.6264151 16.3182949,52.3859793 16.4807393,52.6390612 C17.9266024,54.8916581 18.6124842,56.9850338 18.6124793,60.0026549 C18.6124793,63.0175696 17.9275154,65.1091085 16.4833979,67.358052 C16.3209705,67.6110025 15.8136078,68.3710047 15.7466548,68.4736412 C14.9807945,69.647583 14.7928336,70.4761567 15.2017547,72.002272 C15.6110181,73.5297421 16.1912336,74.1572155 17.4393182,74.7899185 C17.6066285,74.8747357 18.233228,75.1840751 18.2699908,75.202412 C20.2941663,76.2120467 21.6098911,77.1606711 22.9682277,78.9073752 C23.3884024,79.4476837 23.7830855,80.0396023 24.1595964,80.6917113 C25.5122634,83.0345787 26.0385477,85.1043263 26.0136699,87.4378781 C26.008642,87.9095036 25.9939112,88.1858738 25.9413883,88.9915261 C25.9275591,89.203654 25.9195872,89.3325006 25.9124103,89.4642469 C25.8363322,90.8602311 26.0895614,91.6757664 27.2083306,92.7944852 C28.3269167,93.9131089 29.1424747,94.1663462 30.5385487,94.0902842 C30.6700991,94.0831178 30.7989646,94.0751447 31.0105809,94.061347 C31.8208787,94.0085141 32.098106,93.9937661 32.5724109,93.9889771 C34.9004652,93.9654711 36.966698,94.4925145 39.3063337,95.8431429 C39.9693514,96.2259531 40.5702165,96.6274161 41.1178984,97.0552043 C42.851241,98.4090989 43.7956226,99.7200889 44.8016771,101.734086 C44.8272515,101.785283 45.1293485,102.396553 45.2127611,102.561102 C45.8473957,103.812983 46.4706484,104.390021 47.9958058,104.798696 C49.52042,105.207232 50.3505804,105.018594 51.5269025,104.251301 C51.6277882,104.185491 52.3875895,103.678408 52.6406176,103.515963 C54.8913314,102.070998 56.9837677,101.385587 60.0000003,101.385587 C63.0162378,101.385587 65.108695,102.070996 67.3593943,103.51596 C67.6124611,103.678431 68.3723378,104.185572 68.473147,104.251333 C69.6493349,105.018609 70.4795194,105.207243 72.0043016,104.798668 C73.5317588,104.389407 74.1592142,103.809205 74.7918798,102.561224 C74.8764262,102.394437 75.1839012,101.77171 75.2047512,101.729923 C76.2084697,99.7183182 77.1505745,98.4090415 78.8810806,97.056337 C79.4289736,96.6280592 80.0301731,96.226228 80.6937432,95.8430989 C83.0366015,94.490445 85.1063306,93.9641748 87.4398814,93.9890466 C87.9114519,93.9940728 88.1878072,94.0088001 88.993352,94.061307 C89.2055404,94.0751378 89.334409,94.0831094 89.4662615,94.09029 C90.8620824,94.1663594 91.6777236,93.9130835 92.7964869,92.7943706 C93.9126213,91.6782711 94.1639635,90.8662711 94.0875861,89.4641698 C94.0805399,89.33484 94.0727353,89.2080462 94.0593074,89.0006517 C94.006635,88.1871302 93.9919254,87.9079959 93.9874007,87.4315983 C93.965266,85.1010623 94.4934606,83.032734 95.8450537,80.6918028 C96.2336929,80.0186331 96.6415353,79.4096184 97.0766464,78.8553601 C98.424406,77.138541 99.7280742,76.201934 101.728819,75.2031898 C101.774497,75.180388 102.394257,74.8742907 102.560682,74.7899185 C103.808744,74.1572188 104.388963,73.529738 104.798254,72.0022415 C105.207158,70.4761534 105.019218,69.6476713 104.253202,68.4734213 C104.186274,68.3708188 103.678995,67.6109273 103.516607,67.3580351 C102.072488,65.1090699 101.387521,63.0175623 101.387521,60.0026549 C101.387521,56.9849892 102.073382,54.8916 103.519226,52.6390801 C103.681699,52.3859589 104.18854,51.6263104 104.253342,51.5269725 C105.019205,50.3530217 105.207166,49.5244484 104.798246,47.9983354 C104.388983,46.4708653 103.808767,45.8433919 102.560682,45.2106889 C102.394384,45.1263845 101.774941,44.8204496 101.728948,44.7974906 C99.7294943,43.7993982 98.4265397,42.8635865 97.0793226,41.1486011 C96.6432524,40.5934909 96.2345633,39.983427 95.8450977,39.3088808 C94.4934906,36.9678301 93.9653165,34.8995504 93.9874242,32.569066 C93.9919434,32.0926734 94.0066498,31.8135288 94.0593099,31.0000231 C94.0727352,30.7926247 94.080538,30.6658319 94.0875903,30.5363605 C94.1639973,29.1343415 93.9126596,28.3223591 92.7963642,27.206114 C91.680267,26.0899743 90.8682766,25.838634 89.4661845,25.9150239 C89.3369069,25.9220672 89.2101594,25.929868 89.0028745,25.9432866 C88.1891829,25.9959612 87.9099962,26.0106699 87.4335037,26.0151849 C85.1030881,26.0372669 83.0348395,25.5090901 80.6938195,24.1575525 C80.042705,23.7816456 79.4515474,23.38758 78.9118621,22.9681019 C77.1637634,21.6093674 76.2144946,20.2930426 75.2044216,18.2679033 C75.1859803,18.2309295 74.8767031,17.6044237 74.7918798,17.437092 C74.1603047,16.1911614 73.5330954,15.6115898 72.0047083,15.2020486 C71.5215335,15.0726323 71.0995856,15.0101835 70.7290947,15.0011256 C69.9322626,14.9819693 69.321528,15.1959186 68.4732186,15.7493421 C68.372333,15.8151523 67.6125317,16.322236 67.3595036,16.4846808 C65.1087898,17.9296458 63.0163535,18.6150561 60.0001209,18.6150561 C56.9838833,18.6150561 54.8914261,17.9296476 52.6407268,16.4846834 C52.3876601,16.3222128 51.6277833,15.8150719 51.5267137,15.7491403 C50.9621051,15.3807726 50.5290509,15.1786315 50.089841,15.0790426 C49.8351493,15.0213172 49.5676928,14.9939914 49.2713803,15.0010958 C48.9002438,15.0100358 48.4795484,15.0723514 47.9958516,15.2018988 Z" id="Path" fill="#FFFFFF" fill-rule="nonzero"></path>
        <path d="M84.8098588,44.9766551 L81.390111,47.0515828 C76.8856429,39.6276398 68.843675,35 60,35 C48.8854538,35 39.1975126,42.3182582 36.0512846,52.8017586 L32.2200979,51.6519721 C35.8706476,39.4880288 47.1071361,31 60,31 C70.2562428,31 79.5875072,36.3695477 84.8098588,44.9766551 Z M39.7628441,80.7715755 L42.5543914,77.9067433 C47.1933581,82.4270411 53.3912596,85 60,85 C69.5012946,85 78.0479562,79.6537387 82.2873799,71.3384547 L85.8509595,73.1552927 C80.9349403,82.7976637 71.0197366,89 60,89 C52.3377307,89 45.1414288,86.0125712 39.7628441,80.7715755 Z" id="Shape" fill="#FFFFFF" fill-rule="nonzero"></path>
        <path d="M26,63.8314607 L27.7791161,54 L31.2360978,54 C32.7596845,54 33.8782503,54.3604833 34.5918289,55.0814607 C35.3054075,55.8024381 35.6621914,56.7762111 35.6621914,58.002809 C35.6621914,59.1451368 35.4042463,60.1563626 34.8883483,61.0365169 C34.3724502,61.9166711 33.6516502,62.6025256 32.7259267,63.0941011 C31.8002031,63.5856766 30.7105657,63.8314607 29.4569817,63.8314607 L26,63.8314607 Z M28.1262607,62.2865169 L29.6450183,62.2865169 C30.5225271,62.2865169 31.2674341,62.1179792 31.8797617,61.7808989 C32.4920893,61.4438185 32.9573548,60.9662952 33.2755723,60.3483146 C33.5937898,59.730334 33.7528961,59.0000042 33.7528961,58.1573034 C33.7528961,57.2771492 33.5214687,56.6193842 33.0586069,56.1839888 C32.5957451,55.7485933 31.867713,55.5308989 30.8744888,55.5308989 L29.3557312,55.5308989 L28.1262607,62.2865169 Z M39.798998,64 C39.172206,64 38.6225658,63.8642336 38.1500611,63.5926966 C37.6775564,63.3211597 37.3087189,62.953654 37.0435377,62.4901685 C36.7783564,62.0266831 36.6457678,61.4953213 36.6457678,60.8960674 C36.6457678,60.3061768 36.7542494,59.7560887 36.9712159,59.2457865 C37.1881823,58.7354843 37.4919308,58.2883914 37.8824705,57.9044944 C38.2730101,57.5205973 38.7286328,57.2233157 39.2493523,57.0126404 C39.7700718,56.8019652 40.3293548,56.6966292 40.9272179,56.6966292 C41.5636529,56.6966292 42.1205251,56.827714 42.5978513,57.0898876 C43.0751775,57.3520612 43.4488364,57.7125445 43.7188391,58.1713483 C43.9888418,58.6301521 44.1238411,59.1638546 44.1238411,59.7724719 C44.1238411,60.3717258 44.0129488,60.9264956 43.7911609,61.4367978 C43.569373,61.9470999 43.2632138,62.3941928 42.8726741,62.7780899 C42.4821345,63.1619869 42.0241011,63.4616094 41.4985601,63.6769663 C40.9730191,63.8923232 40.4065041,64 39.798998,64 Z M40.0448921,62.4410112 C40.4595391,62.4410112 40.8307872,62.3286528 41.1586477,62.1039326 C41.4865081,61.8792124 41.7468639,61.5725675 41.939723,61.1839888 C42.1325821,60.79541 42.2290102,60.3576803 42.2290102,59.8707865 C42.2290102,59.3558027 42.0819573,58.9578666 41.7878472,58.6769663 C41.4937372,58.396066 41.1393639,58.255618 40.7247169,58.255618 C40.3197128,58.255618 39.9508754,58.3679764 39.6181935,58.5926966 C39.2855116,58.8174169 39.022745,59.1240617 38.8298859,59.5126404 C38.6370269,59.9012192 38.5405988,60.3389489 38.5405988,60.8258427 C38.5405988,61.3408265 38.6876516,61.7387626 38.9817617,62.0196629 C39.2758718,62.3005632 39.630245,62.4410112 40.0448921,62.4410112 Z M45.0929532,63.8314607 L46.3513523,56.8651685 L47.9858248,56.8651685 L47.9424318,58.0168539 C48.2413633,57.6142302 48.6174329,57.2935405 49.0706517,57.0547753 C49.5238706,56.81601 50.030118,56.6966292 50.5894094,56.6966292 C51.3319168,56.6966292 51.9080747,56.8955973 52.3179002,57.2935393 C52.7277257,57.6914814 52.9326354,58.2649775 52.9326354,59.0140449 C52.9326354,59.2762185 52.903707,59.5711594 52.8458493,59.8988764 L52.1226314,63.8314607 L50.2711935,63.8314607 L50.9654827,60.0674157 C50.9751256,59.9550556 50.9871791,59.8497196 51.0016436,59.7514045 C51.016108,59.6530894 51.0233401,59.5617982 51.0233401,59.4775281 C51.0233401,58.6348272 50.5942351,58.2134831 49.7360122,58.2134831 C49.2249357,58.2134831 48.7717236,58.3890432 48.3763625,58.7401685 C47.9810014,59.0912939 47.725467,59.571158 47.6097515,60.1797753 L46.944391,63.8314607 L45.0929532,63.8314607 Z M56.5776538,64 C55.8255034,64 55.2469348,63.801032 54.8419307,63.4030899 C54.4369267,63.0051478 54.2344277,62.4316517 54.2344277,61.6825843 C54.2344277,61.4204107 54.2633561,61.1254698 54.3212138,60.7977528 L55.0444318,56.8651685 L56.8814053,56.8651685 L56.2015804,60.6292135 C56.1822945,60.7415736 56.1678303,60.8469096 56.1581874,60.9452247 C56.1485444,61.0435398 56.143723,61.134831 56.143723,61.2191011 C56.143723,62.061802 56.5680066,62.4831461 57.4165865,62.4831461 C57.9373061,62.4831461 58.3953395,62.307586 58.7907006,61.9564607 C59.1860617,61.6053353 59.4415962,61.1254712 59.5573116,60.5168539 L60.2082077,56.8651685 L62.0596456,56.8651685 L60.8012464,63.8314607 L59.1667739,63.8314607 L59.2246314,62.6797753 C58.9256998,63.082399 58.5496302,63.4030887 58.0964114,63.6418539 C57.6431926,63.8806192 57.1369451,64 56.5776538,64 Z M65.3864481,64 C64.6342977,64 64.0557291,63.801032 63.650725,63.4030899 C63.245721,63.0051478 63.043222,62.4316517 63.043222,61.6825843 C63.043222,61.4204107 63.0721504,61.1254698 63.1300081,60.7977528 L63.8532261,56.8651685 L65.6901996,56.8651685 L65.0103747,60.6292135 C64.9910888,60.7415736 64.9766246,60.8469096 64.9669817,60.9452247 C64.9573387,61.0435398 64.9525173,61.134831 64.9525173,61.2191011 C64.9525173,62.061802 65.3768009,62.4831461 66.2253808,62.4831461 C66.7461004,62.4831461 67.2041338,62.307586 67.5994949,61.9564607 C67.994856,61.6053353 68.2503904,61.1254712 68.3661059,60.5168539 L69.017002,56.8651685 L70.8684399,56.8651685 L69.6100407,63.8314607 L67.9755682,63.8314607 L68.0334256,62.6797753 C67.7344941,63.082399 67.3584245,63.4030887 66.9052057,63.6418539 C66.4519869,63.8806192 65.9457394,64 65.3864481,64 Z M74.1952423,64 C73.4430919,64 72.8645234,63.801032 72.4595193,63.4030899 C72.0545153,63.0051478 71.8520163,62.4316517 71.8520163,61.6825843 C71.8520163,61.4204107 71.8809447,61.1254698 71.9388024,60.7977528 L72.6620204,56.8651685 L74.4989939,56.8651685 L73.819169,60.6292135 C73.7998831,60.7415736 73.7854189,60.8469096 73.775776,60.9452247 C73.766133,61.0435398 73.7613116,61.134831 73.7613116,61.2191011 C73.7613116,62.061802 74.1855952,62.4831461 75.0341751,62.4831461 C75.5548946,62.4831461 76.0129281,62.307586 76.4082892,61.9564607 C76.8036503,61.6053353 77.0591847,61.1254712 77.1749002,60.5168539 L77.8257963,56.8651685 L79.6772342,56.8651685 L78.418835,63.8314607 L76.7843625,63.8314607 L76.8422199,62.6797753 C76.5432884,63.082399 76.1672188,63.4030887 75.714,63.6418539 C75.2607812,63.8806192 74.7545337,64 74.1952423,64 Z M83.3945743,63.8314607 C82.7388535,63.8314607 82.2157311,63.7003758 81.8251914,63.4382022 C81.4346518,63.1760287 81.2393849,62.7219133 81.2393849,62.0758427 C81.2393849,61.8698492 81.2634919,61.6404507 81.3117067,61.3876404 L81.8613523,58.3679775 L80.7042036,58.3679775 L80.9790265,56.8651685 L82.1361751,56.8651685 L82.6858208,54.997191 L84.3347576,54.997191 L83.987613,56.8651685 L85.9403014,56.8651685 L85.6510142,58.3679775 L83.7272546,58.3679775 L83.1631446,61.4016854 C83.1438587,61.4953188 83.1342159,61.5889508 83.1342159,61.6825843 C83.1342159,61.9073045 83.1993048,62.0664789 83.3294847,62.1601124 C83.4596646,62.2537458 83.6742171,62.3005618 83.9731487,62.3005618 L84.956725,62.3005618 L84.6674379,63.8314607 L83.3945743,63.8314607 Z M89.2960326,64 C88.6403117,64 88.0834395,63.8923232 87.6253992,63.6769663 C87.1673589,63.4616094 86.8226284,63.1666685 86.5911975,62.7921348 C86.3597666,62.4176011 86.2633386,61.9915754 86.3019104,61.5140449 L88.1533483,61.5140449 C88.1437053,61.8417619 88.2545976,62.1086132 88.4860285,62.3146067 C88.7174594,62.5206003 89.0646005,62.6235955 89.5274623,62.6235955 C89.9324664,62.6235955 90.2482684,62.5393267 90.4748778,62.3707865 C90.7014872,62.2022463 90.8147902,61.9868927 90.8147902,61.7247191 C90.8147902,61.4906355 90.6942551,61.3197571 90.4531812,61.2120787 C90.2121074,61.1044002 89.9035375,61.0084274 89.5274623,60.9241573 C89.1321012,60.8305239 88.7463888,60.7088022 88.3703136,60.5589888 C87.9942384,60.4091753 87.6832578,60.212548 87.4373625,59.9691011 C87.1914672,59.7256542 87.0685214,59.4119869 87.0685214,59.0280899 C87.0685214,58.5786494 87.2059314,58.1783725 87.4807556,57.8272472 C87.7555798,57.4761218 88.13406,57.1999074 88.6162077,56.9985955 C89.0983554,56.7972836 89.6528169,56.6966292 90.2796089,56.6966292 C91.1281889,56.6966292 91.7983641,56.8932565 92.2901548,57.2865169 C92.7819454,57.6797772 93.0181942,58.2134798 92.9989083,58.8876404 L91.2197922,58.8876404 C91.2101493,58.6441935 91.1016677,58.4475663 90.8943442,58.2977528 C90.6870207,58.1479393 90.4146113,58.0730337 90.0771079,58.0730337 C89.7299616,58.0730337 89.4479094,58.1455985 89.230943,58.2907303 C89.0139765,58.4358621 88.9054949,58.6161038 88.9054949,58.8314607 C88.9054949,59.0374542 89.0332621,59.1942879 89.2888004,59.3019663 C89.5443387,59.4096447 89.8794263,59.5102992 90.2940733,59.6039326 C90.7472921,59.7069294 91.1547008,59.8333326 91.5163116,59.9831461 C91.8779224,60.1329596 92.1672066,60.327246 92.3841731,60.5660112 C92.6011396,60.8047765 92.7096212,61.1161029 92.7096212,61.5 C92.7096212,62.0056205 92.5601576,62.445691 92.261226,62.8202247 C91.9622945,63.1947584 91.5548858,63.4850177 91.0389878,63.6910112 C90.5230897,63.8970048 89.9421105,64 89.2960326,64 Z" id="Donuuuts" fill="#FFFFFF" fill-rule="nonzero" transform="translate(59.500000, 59.000000) rotate(-7.000000) translate(-59.500000, -59.000000) "></path>
        <polygon id="Line" fill="#FFFFFF" fill-rule="nonzero" points="31.2763663 76.232836 91.3192668 65.8914545 90.8100645 62.9349848 30.767164 73.2763663"></polygon>
    </g>
</svg>