<?xml version="1.0" encoding="UTF-8"?>
<svg width="20px" height="20px" viewBox="0 0 20 20" version="1.1" xmlns="http://www.w3.org/2000/svg" xmlns:xlink="http://www.w3.org/1999/xlink">
    <!-- Generator: Sketch 54.1 (76490) - https://sketchapp.com -->
    <title>instagram</title>
    <desc>Created with Sketch.</desc>
    <g id="Layout" stroke="none" stroke-width="1" fill="none" fill-rule="evenodd">
        <g id="Artboard" transform="translate(-4468.000000, -1026.000000)" fill="#FFFFFF" fill-rule="nonzero">
            <g id="instagram" transform="translate(4468.000000, 1026.000000)">
                <path d="M14.017,0 L5.947,0 C2.66377175,0.00385836436 0.0033063293,2.66477115 0,5.948 L0,14.018 C0.00385836436,17.3012282 2.66477115,19.9616937 5.948,19.965 L14.018,19.965 C17.3012282,19.9611416 19.9616937,17.3002288 19.965,14.017 L19.965,5.947 C19.9611416,2.66377175 17.3002288,0.0033063293 14.017,0 Z M17.957,14.017 C17.957,15.061953 17.541894,16.0641074 16.8030007,16.8030007 C16.0641074,17.541894 15.061953,17.957 14.017,17.957 L5.947,17.957 C3.77138862,17.9564478 2.00799993,16.1926114 2.008,14.017 L2.008,5.947 C2.00855219,3.77138862 3.77238855,2.00799993 5.948,2.008 L14.018,2.008 C16.1936114,2.00855219 17.9570001,3.77238855 17.957,5.948 L17.957,14.018 L17.957,14.017 Z" id="Shape"></path>
                <path d="M9.982,4.819 C7.1325431,4.82340662 4.82385466,7.1325423 4.82,9.982 C4.82330521,12.8322379 7.13276274,15.1421428 9.983,15.146 C12.8336278,15.1426936 15.1436936,12.8326278 15.147,9.982 C15.1425909,7.13176339 12.8322387,4.82275311 9.982,4.82 L9.982,4.819 Z M9.982,13.138 C8.23954161,13.138 6.827,11.7254584 6.827,9.983 C6.827,8.24054161 8.23954161,6.828 9.982,6.828 C11.7244584,6.828 13.137,8.24054161 13.137,9.983 C13.137,11.7254584 11.7244584,13.138 9.982,13.138 Z" id="Shape"></path>
                <circle id="Oval" cx="15.156" cy="4.858" r="1.237"></circle>
            </g>
        </g>
    </g>
</svg>