<?xml version="1.0" encoding="UTF-8"?>
<svg width="48px" height="48px" viewBox="0 0 48 48" version="1.1" xmlns="http://www.w3.org/2000/svg" xmlns:xlink="http://www.w3.org/1999/xlink">
    <!-- Generator: Sketch 54.1 (76490) - https://sketchapp.com -->
    <title>Rectangle 2</title>
    <desc>Created with Sketch.</desc>
    <g id="Layout" stroke="none" stroke-width="1" fill="none" fill-rule="evenodd">
        <g id="Desktop-HD" transform="translate(-208.000000, -1143.000000)" fill="#DBD037">
            <g id="Rectangle-2" transform="translate(208.000000, 1143.000000)">
                <rect id="Rectangle" fill-opacity="0.2" x="0" y="0" width="48" height="48" rx="24"></rect>
                <g id="Group" fill-rule="nonzero">
                    <path d="M24,0 C10.7621053,0 0,10.7621053 0,24 C0,37.2378947 10.7621053,48 24,48 C37.2378947,48 48,37.2378947 48,24 C48,10.7621053 37.2378947,0 24,0 Z M39.5621053,36.8336842 L30.9221053,28.1936842 C30.7705263,28.3957895 30.5178947,28.5978947 30.3157895,28.8 C30.4673684,29.4063158 30.4673684,30.0631579 30.2147368,30.6189474 C30.0631579,31.0231579 29.8105263,31.5789474 29.4568421,32.1347368 L36.8336842,39.5621053 C33.1957895,42.5431579 28.6484211,44.2105263 24,44.2105263 C12.8842105,44.16 3.84,35.1157895 3.84,24 C3.84,19.3515789 5.50736842,14.8042105 8.48842105,11.1663158 L16.8757895,19.5536842 C17.1789474,18.6947368 17.5326316,17.9873684 17.8357895,17.4821053 C18.1389474,16.9768421 18.5936842,16.6231579 19.0989474,16.3705263 L11.1663158,8.48842105 C14.8042105,5.45684211 19.3515789,3.84 24,3.84 C35.1157895,3.84 44.16,12.8842105 44.16,24 C44.16,28.6484211 42.5431579,33.1957895 39.5621053,36.8336842 Z" id="Shape"></path>
                    <path d="M18.8278068,34.03647 C18.6220199,33.9435066 18.3647864,34.03647 18.261893,34.2223968 L16.0496844,37.8944509 C15.946791,38.0803777 15.9982377,38.3592679 16.2554713,38.4522313 L17.4387456,38.96353 C17.6445324,39.0564934 17.9532127,38.96353 18.0561061,38.7776032 L19.9596344,34.966104 C20.0625278,34.7801772 19.9596344,34.5477687 19.7538476,34.4548053 L18.8278068,34.03647 Z" id="Path"></path>
                    <path d="M27.8974135,16.9701474 C28.7381146,16.6887841 30.6822359,15.9384819 31.522937,14.3909838 C32.3636381,12.8434856 31.8907437,11.0146242 31.6280246,10.264322 C31.5754808,10.0767465 31.3127617,9.93606485 31.1025865,10.0298526 C30.2618854,10.3112159 28.3177641,11.0615181 27.477063,12.6090162 C26.6363619,14.1565144 27.1092563,15.9853758 27.3719754,16.735678 C27.477063,16.9232535 27.6872383,17.0639351 27.8974135,16.9701474 Z" id="Path"></path>
                    <path d="M32.7393962,17.4610999 C31.9996487,17.1928236 30.1965141,16.6026157 28.6707848,17.4074447 C27.1450555,18.2122736 26.3128395,20.1975184 26.0354342,21.0023474 C25.9429658,21.2169685 26.0354342,21.4852448 26.2666053,21.5389001 C27.0063529,21.8071764 28.8094875,22.3973843 30.3352167,21.5925553 C31.860946,20.7877264 32.693162,18.8024816 32.9705673,17.9976526 C33.0630358,17.7830315 32.9243331,17.5147552 32.7393962,17.4610999 Z" id="Path"></path>
                    <path d="M24.1818359,20.9480004 C24.4091145,21.0479498 24.6932128,20.9979751 24.8068521,20.848051 C25.318229,20.0984307 26.3409828,18.2993419 25.8864256,16.5502278 C25.4318683,14.751139 23.6136393,13.5517465 22.8181641,13.0519996 C22.5908855,12.9520502 22.3067872,13.0020249 22.1931479,13.151949 C21.681771,13.9015693 20.6590172,15.7006581 21.1135744,17.4497722 C21.5681317,19.248861 23.3863607,20.4982282 24.1818359,20.9480004 Z" id="Path"></path>
                    <path d="M30.7564327,23.4610999 C30.0148152,23.1928236 28.2071224,22.6026157 26.6775363,23.4074447 C25.1479501,24.2122736 24.3136304,26.1975184 24.0355238,27.0023474 C23.9428216,27.2169685 24.0355238,27.4852448 24.2672793,27.5389001 C25.0088968,27.8071764 26.8165895,28.3973843 28.3461757,27.5925553 C29.8757619,26.7877264 30.7100816,24.8024816 30.9881882,23.9976526 C31.0345393,23.7830315 30.9418371,23.5684105 30.7564327,23.4610999 Z" id="Path"></path>
                    <path d="M22.1818359,26.9480004 C22.4091145,27.0479498 22.6932128,26.9979751 22.8068521,26.848051 C23.318229,26.0984307 24.3409828,24.2993419 23.8864256,22.5502278 C23.4318683,20.751139 21.6136393,19.5517465 20.8181641,19.0519996 C20.5908855,18.9520502 20.3067872,19.0020249 20.1931479,19.151949 C19.681771,19.9015693 18.6590172,21.7006581 19.1135744,23.4497722 C19.5681317,25.248861 21.3863607,26.4482535 22.1818359,26.9480004 Z" id="Path"></path>
                    <path d="M27.7564327,29.4610999 C27.0148152,29.1928236 25.2071224,28.6026157 23.6775363,29.4074447 C22.1479501,30.2122736 21.3136304,32.1975184 21.0355238,33.0023474 C20.9428216,33.2169685 21.0355238,33.4852448 21.2672793,33.5389001 C22.0088968,33.8071764 23.8165895,34.3973843 25.3461757,33.5925553 C26.8757619,32.7877264 27.7100816,30.8024816 27.9881882,29.9976526 C28.0345393,29.7830315 27.9418371,29.5147552 27.7564327,29.4610999 Z" id="Path"></path>
                    <path d="M19.1818359,32.9480004 C19.4091145,33.0479498 19.6932128,32.9979751 19.8068521,32.848051 C20.318229,32.0984307 21.3409828,30.2993419 20.8864256,28.5502278 C20.4318683,26.751139 18.6136393,25.5517465 17.8181641,25.0519996 C17.5908855,24.9520502 17.3067872,25.0020249 17.1931479,25.151949 C16.681771,25.9015693 15.6590172,27.7006581 16.1135744,29.4497722 C16.5681317,31.248861 18.3863607,32.4982282 19.1818359,32.9480004 Z" id="Path"></path>
                </g>
            </g>
        </g>
    </g>
</svg>