<?xml version="1.0" encoding="UTF-8"?>
<svg width="15px" height="20px" viewBox="0 0 15 20" version="1.1" xmlns="http://www.w3.org/2000/svg" xmlns:xlink="http://www.w3.org/1999/xlink">
    <!-- Generator: Sketch 54.1 (76490) - https://sketchapp.com -->
    <title>yelp</title>
    <desc>Created with Sketch.</desc>
    <g id="Layout" stroke="none" stroke-width="1" fill="none" fill-rule="evenodd">
        <g id="Artboard" transform="translate(-4407.000000, -1026.000000)" fill="#FFFFFF" fill-rule="nonzero">
            <g id="yelp" transform="translate(4407.000000, 1026.000000)">
                <path d="M5.893,14.08 L3.13,17.444 C2.94685245,17.6671627 2.88144852,17.9644437 2.95402349,18.2438672 C3.02659847,18.5232907 3.22840267,18.7511694 3.497,18.857 L6.198,19.92 C6.4719596,20.0276819 6.78121028,19.9950721 7.02668457,19.8326171 C7.27215886,19.6701621 7.42304235,19.3982549 7.431,19.104 L7.548,14.697 C7.571,13.808 6.458,13.393 5.893,14.08 L5.893,14.08 Z M5.434,10.735 L1.336,9.264 C1.06440835,9.16671822 0.762682404,9.20505964 0.524053554,9.367177 C0.285424704,9.52929436 0.138619568,9.79567166 0.129,10.084 L0.036,12.986 C0.0269932003,13.2800519 0.161794363,13.5600577 0.397265595,13.7364123 C0.632736828,13.9127669 0.939355433,13.9633596 1.219,13.872 L5.409,12.5 C6.254,12.224 6.27,11.035 5.434,10.735 Z M10.13,11.207 L14.328,10.05 C14.606133,9.97305058 14.8307353,9.76780054 14.9323663,9.49770736 C15.0339972,9.22761418 15.0004142,8.92521387 14.842,8.684 L13.247,6.258 C13.0849899,6.01257655 12.8136192,5.86141635 12.519669,5.85285856 C12.2257188,5.84430077 11.9460137,5.97941747 11.77,6.215 L9.134,9.749 C8.603,10.462 9.274,11.443 10.13,11.207 Z M7.09,1.12 C7.10519557,0.77856012 6.95636543,0.450404714 6.68948177,0.236897786 C6.42259811,0.0233908576 6.06977647,-0.0497751609 5.74,0.04 L2.416,0.946 C2.07920932,1.03789891 1.80842696,1.28831789 1.69053142,1.61691188 C1.57263588,1.94550587 1.62245325,2.31095215 1.824,2.596 L5.637,9.202 C5.667,9.256 5.702,9.308 5.742,9.355 C6.307,10.018 7.367,9.773 7.628,8.995 C7.675,8.856 7.688,8.708 7.676,8.561 L7.091,1.121 L7.09,1.12 Z M14.356,14.226 L10.141,12.932 C9.291,12.672 8.593,13.633 9.103,14.361 L11.603,17.925 C11.7689176,18.1613752 12.0378858,18.3041324 12.3266374,18.3090768 C12.6153889,18.3140212 12.889087,18.1805562 13.063,17.95 L14.812,15.633 C14.9893405,15.3978664 15.0408722,15.091024 14.9500723,14.8108582 C14.8592723,14.5306925 14.6375507,14.3124098 14.356,14.226 L14.356,14.226 Z" id="Shape"></path>
            </g>
        </g>
    </g>
</svg>